<svg width="960" height="540" viewBox="0 0 960 540" xmlns="http://www.w3.org/2000/svg" role="img" aria-label="Recargas visual">
  <defs>
    <linearGradient id="rg1" x1="0" y1="0" x2="1" y2="1">
      <stop offset="0%" stop-color="#f9a8d4" stop-opacity="0.9"/>
      <stop offset="100%" stop-color="#141e2a" stop-opacity="0.5"/>
    </linearGradient>
    <linearGradient id="rg2" x1="1" y1="0" x2="0" y2="1">
      <stop offset="0%" stop-color="#1c2a3b" stop-opacity="0.95"/>
      <stop offset="100%" stop-color="#22354a" stop-opacity="0.85"/>
    </linearGradient>
  </defs>
  <rect width="960" height="540" fill="#141e2a"/>
  <rect x="100" y="80" width="430" height="360" rx="24" fill="url(#rg2)" stroke="#2e415a" stroke-width="2"/>
  <rect x="140" y="130" width="350" height="64" rx="14" fill="url(#rg1)"/>
  <rect x="140" y="220" width="320" height="48" rx="12" fill="#1c2a3b" stroke="#2e415a"/>
  <rect x="140" y="290" width="180" height="48" rx="12" fill="#1c2a3b" stroke="#2e415a"/>
  <rect x="340" y="290" width="120" height="48" rx="12" fill="#f9a8d4" opacity="0.9"/>
  <rect x="140" y="360" width="320" height="38" rx="10" fill="#24364d"/>
  <circle cx="740" cy="200" r="120" fill="url(#rg1)" opacity="0.4"/>
  <rect x="620" y="140" width="210" height="280" rx="30" fill="#1c2a3b" stroke="#2e415a"/>
  <rect x="650" y="180" width="150" height="44" rx="12" fill="#24364d"/>
  <rect x="650" y="238" width="150" height="44" rx="12" fill="#24364d"/>
  <rect x="650" y="296" width="150" height="44" rx="12" fill="#24364d"/>
  <rect x="665" y="308" width="120" height="20" rx="10" fill="#f9a8d4"/>
</svg>

